<svg xmlns="http://www.w3.org/2000/svg" width="519" height="519" viewBox="0 0 519 519" id="angry-emoji"><defs><linearGradient id="a" x1="50%" x2="50%" y1="18.4%" y2="100%"><stop offset="0%" stop-color="#F66F6A"></stop><stop offset="100%" stop-color="#FFD872"></stop></linearGradient><linearGradient id="c" x1="50%" x2="50%" y1="0%" y2="100%"><stop offset="0%"></stop><stop offset="100%" stop-color="#463F2C"></stop></linearGradient><radialGradient id="b" cx="50%" cy="50%" r="49.968%" fx="50%" fy="50%" gradientTransform="rotate(-88.88 .494 .506) scale(1 1.02299)"><stop offset="0%" stop-color="#D27C12" stop-opacity=".186"></stop><stop offset="85.631%" stop-color="#D27C12" stop-opacity="0"></stop><stop offset="100%" stop-color="#D27C12" stop-opacity=".222"></stop></radialGradient></defs><g fill="none" fill-rule="evenodd"><circle cx="259.5" cy="259.5" r="259.5" fill="url(#a)"></circle><circle cx="259.5" cy="259.5" r="259.5" fill="url(#b)"></circle><path fill="url(#c)" d="M264,424 C342.984583,424 352,414.59798 352,403 C352,391.40202 312.601058,382 264,382 C215.398942,382 176,391.40202 176,403 C176,414.59798 185.015417,424 264,424 Z" opacity=".88"></path><path fill="#251C0C" fill-rule="nonzero" d="M18.7746865,2.31184811 L18.7417282,2.28622669 L18.9828356,2.45063883 C19.1657896,2.57320526 19.3870824,2.71724321 19.6471452,2.88149398 C20.7423323,3.5731937 22.1252303,4.37259868 23.8041522,5.2558136 C28.8229683,7.89601577 35.1233517,10.5821137 42.7736855,13.1216442 C66.0511368,20.8486009 95.9484814,25.3995051 133.070205,25.0415446 C139.596916,24.9786083 144.937831,30.3296132 145.00054,36.9933486 C145.061115,43.657084 139.820142,49.1101288 133.293431,49.1730651 C123.613694,49.2664057 114.363386,49.0425581 105.535145,48.5264554 C105.781583,50.1041338 105.909091,51.7219466 105.909091,53.3701657 C105.909091,70.2865561 92.4776334,84 75.9090909,84 C59.3405484,84 45.9090909,70.2865561 45.9090909,53.3701657 C45.9090909,48.5899979 46.9815828,44.065583 48.8942897,40.0340745 C44.2307656,38.8194707 39.7551484,37.4956812 35.4654842,36.071726 C26.7938666,33.19318 19.4503877,30.0801635 13.3809397,26.9190827 L12.9781967,26.7082748 C10.8803819,25.6046968 9.05677719,24.556952 7.50116374,23.5859261 L7.21262523,23.4047629 C6.14496535,22.7304489 5.36386351,22.1940846 4.86167718,21.8207486 C-0.414780468,17.898117 -1.57766132,10.3509796 2.2643101,4.96374554 C6.10628153,-0.423488567 13.4982288,-1.61078349 18.7746865,2.31184811 Z" transform="translate(87 256)"></path><path fill="#251C0C" fill-rule="nonzero" d="M18.7746865,2.31184811 L18.7417282,2.28622669 L18.9828356,2.45063883 C19.1657896,2.57320526 19.3870824,2.71724321 19.6471452,2.88149398 C20.7423323,3.5731937 22.1252303,4.37259868 23.8041522,5.2558136 C28.8229683,7.89601577 35.1233517,10.5821137 42.7736855,13.1216442 C66.0511368,20.8486009 95.9484814,25.3995051 133.070205,25.0415446 C139.596916,24.9786083 144.937831,30.3296132 145.00054,36.9933486 C145.061115,43.657084 139.820142,49.1101288 133.293431,49.1730651 C123.613694,49.2664057 114.363386,49.0425581 105.535145,48.5264554 C105.781583,50.1041338 105.909091,51.7219466 105.909091,53.3701657 C105.909091,70.2865561 92.4776334,84 75.9090909,84 C59.3405484,84 45.9090909,70.2865561 45.9090909,53.3701657 C45.9090909,48.5899979 46.9815828,44.065583 48.8942897,40.0340745 C44.2307656,38.8194707 39.7551484,37.4956812 35.4654842,36.071726 C26.7938666,33.19318 19.4503877,30.0801635 13.3809397,26.9190827 L12.9781967,26.7082748 C10.8803819,25.6046968 9.05677719,24.556952 7.50116374,23.5859261 L7.21262523,23.4047629 C6.14496535,22.7304489 5.36386351,22.1940846 4.86167718,21.8207486 C-0.414780468,17.898117 -1.57766132,10.3509796 2.2643101,4.96374554 C6.10628153,-0.423488567 13.4982288,-1.61078349 18.7746865,2.31184811 Z" transform="matrix(-1 0 0 1 439 256)"></path></g></svg>