<svg xmlns="http://www.w3.org/2000/svg" width="512" height="512" enable-background="new 0 0 512 512" viewBox="0 0 512 512" id="emoji"><g><g><path fill="#F3B81A" d="M470.21,256c0,1.9-0.021,3.79-0.08,5.67c-1.42,55.102-23.54,106.69-62.66,145.802    c-40.45,40.46-94.25,62.74-151.47,62.74c-57.222,0-111.021-22.28-151.472-62.74C65.41,368.361,43.29,316.77,41.87,261.67    c-0.062-1.88-0.08-3.77-0.08-5.67c0-57.22,22.278-111.01,62.738-151.47C144.98,64.07,198.78,41.79,256,41.79    c57.22,0,111.02,22.28,151.47,62.74C447.93,144.99,470.21,198.78,470.21,256z"></path><g><g><path fill="#5E2B16" d="M407.47,104.53C367.02,64.07,313.22,41.79,256,41.79c-57.222,0-111.021,22.28-151.472,62.74      C64.07,144.99,41.79,198.78,41.79,256c0,1.9,0.02,3.79,0.08,5.67c1.42,55.102,23.54,106.69,62.658,145.802      c40.45,40.46,94.25,62.74,151.472,62.74c57.22,0,111.02-22.28,151.47-62.74c39.12-39.109,61.24-90.7,62.66-145.802      c0.061-1.88,0.08-3.77,0.08-5.67C470.21,198.78,447.93,144.99,407.47,104.53z M256,460.212      c-94.602,0-174.38-64.662-197.472-152.11C54.13,291.47,51.79,274,51.79,256C51.79,143.4,143.4,51.79,256,51.79      c112.6,0,204.21,91.61,204.21,204.21c0,18-2.342,35.472-6.74,52.102C430.38,395.55,350.6,460.212,256,460.212z"></path></g></g></g><g><rect width="120.949" height="10" x="195.526" y="351.5" fill="#5E2C17"></rect></g></g><g><g><g><rect width="10" height="67.481" x="216.025" y="168.5" fill="#5E2B16"></rect></g></g><g><g><rect width="10" height="67.481" x="285.975" y="168.5" fill="#5E2B16"></rect></g></g></g></svg>