<svg xmlns="http://www.w3.org/2000/svg" width="512" height="512" enable-background="new 0 0 512 512" viewBox="0 0 512 512" id="emoji"><g><path fill="#F3B81A" d="M470.209,256c0,1.9-0.021,3.79-0.079,5.67c-1.421,55.103-23.54,106.69-62.66,145.803   c-40.45,40.46-94.25,62.74-151.47,62.74c-57.223,0-111.021-22.28-151.473-62.74C65.41,368.361,43.29,316.77,41.87,261.67   c-0.063-1.88-0.08-3.77-0.08-5.67c0-57.22,22.277-111.01,62.737-151.47C144.98,64.07,198.78,41.79,256,41.79   c57.22,0,111.02,22.28,151.47,62.74C447.93,144.99,470.209,198.78,470.209,256z"></path><g><g><path fill="#5E2B16" d="M407.47,104.53C367.02,64.07,313.22,41.79,256,41.79c-57.223,0-111.021,22.28-151.473,62.74     C64.07,144.99,41.79,198.78,41.79,256c0,1.9,0.02,3.79,0.08,5.67c1.42,55.103,23.54,106.69,62.657,145.803     c40.45,40.46,94.25,62.74,151.473,62.74c57.22,0,111.02-22.28,151.47-62.74c39.12-39.109,61.239-90.7,62.66-145.803     c0.061-1.88,0.079-3.77,0.079-5.67C470.209,198.78,447.93,144.99,407.47,104.53z M256,460.213     c-94.603,0-174.38-64.662-197.473-152.11C54.13,291.47,51.79,274,51.79,256C51.79,143.4,143.4,51.79,256,51.79     c112.6,0,204.209,91.61,204.209,204.21c0,18-2.342,35.473-6.739,52.103C430.38,395.551,350.6,460.213,256,460.213z"></path></g><g><path fill="#5E2B16" d="M256,384.651c-40.753,0-78.529-19.065-98.586-49.755l8.371-5.474     c18.229,27.896,52.799,45.229,90.215,45.229s71.981-17.329,90.215-45.229l8.371,5.474     C334.529,365.586,296.754,384.651,256,384.651z"></path></g></g><g><path fill="none" d="M227.55,190.553c0-8.822-7.178-16-16-16s-16,7.178-16,16c0,2.761-2.239,5-5,5s-5-2.239-5-5    c0-8.822-7.178-16-16-16s-16,7.178-16,16c0,3.005,0.838,5.917,2.419,8.447c4.007,4.242,24.759,26.453,34.581,41.711    c9.819-15.254,30.561-37.456,34.577-41.707C226.711,196.473,227.55,193.56,227.55,190.553z"></path><path fill="#5E2B16" d="M233.365,204.687c2.734-4.212,4.187-9.094,4.187-14.133c0-14.336-11.664-26-26-26    c-8.619,0-16.267,4.218-21,10.693c-4.733-6.477-12.381-10.693-21-10.693c-14.336,0-26,11.663-26,26    c0,5.04,1.45,9.921,4.186,14.133c0.015,0.021,0.025,0.042,0.038,0.063c0.02,0.027,0.033,0.059,0.053,0.084    c0.055,0.084,0.111,0.167,0.174,0.248c1.487,2.22,3.302,4.166,5.379,5.817c13.106,14.296,30.325,34.743,32.355,42.003    c0.604,2.159,2.573,3.652,4.815,3.652s4.21-1.493,4.815-3.652c2.031-7.26,19.25-27.707,32.355-42.003    c2.077-1.651,3.89-3.599,5.379-5.817c0.063-0.081,0.119-0.163,0.174-0.248c0.02-0.026,0.033-0.057,0.053-0.084    C233.34,204.728,233.352,204.708,233.365,204.687z M190.55,240.714c-9.822-15.258-30.574-37.469-34.581-41.711    c-1.581-2.531-2.419-5.442-2.419-8.447c0-8.822,7.178-16,16-16s16,7.178,16,16c0,2.761,2.239,5,5,5s5-2.239,5-5    c0-8.822,7.178-16,16-16s16,7.178,16,16c0,3.007-0.839,5.92-2.423,8.453C221.111,203.259,200.369,225.46,190.55,240.714z"></path></g><g><path fill="none" d="M358.448,190.553c0-8.822-7.178-16-16-16c-8.821,0-16,7.178-16,16c0,2.761-2.237,5-5,5c-2.761,0-5-2.239-5-5    c0-8.822-7.178-16-16-16c-8.82,0-15.998,7.178-15.998,16c0,3.005,0.838,5.917,2.419,8.447    c4.008,4.242,24.759,26.453,34.579,41.711c9.819-15.254,30.563-37.456,34.577-41.707    C357.612,196.473,358.448,193.56,358.448,190.553z"></path><path fill="#5E2B16" d="M364.265,204.687c2.735-4.212,4.186-9.094,4.186-14.133c0-14.336-11.663-26-26-26    c-8.618,0-16.267,4.218-21,10.693c-4.731-6.477-12.382-10.693-21-10.693c-14.337,0-25.998,11.663-25.998,26    c0,5.04,1.448,9.921,4.186,14.133c0.013,0.021,0.024,0.042,0.038,0.063c0.018,0.027,0.033,0.059,0.051,0.084    c0.058,0.084,0.113,0.167,0.174,0.248c1.489,2.22,3.305,4.166,5.379,5.817c13.108,14.296,30.325,34.743,32.357,42.003    c0.604,2.159,2.573,3.652,4.813,3.652c2.242,0,4.21-1.493,4.815-3.652c2.032-7.26,19.249-27.707,32.355-42.003    c2.076-1.651,3.892-3.599,5.381-5.817c0.061-0.081,0.116-0.163,0.174-0.248c0.018-0.026,0.033-0.057,0.051-0.084    C364.24,204.728,364.252,204.708,364.265,204.687z M321.448,240.714c-9.82-15.258-30.571-37.469-34.579-41.711    c-1.581-2.531-2.419-5.442-2.419-8.447c0-8.822,7.178-16,15.998-16c8.822,0,16,7.178,16,16c0,2.761,2.239,5,5,5    c2.763,0,5-2.239,5-5c0-8.822,7.179-16,16-16c8.822,0,16,7.178,16,16c0,3.007-0.839,5.92-2.423,8.453    C352.012,203.259,331.27,225.46,321.448,240.714z"></path></g></g></svg>