<svg xmlns="http://www.w3.org/2000/svg" xmlns:xlink="http://www.w3.org/1999/xlink" width="519" height="519" viewBox="0 0 519 519" id="smiling-emoji"><defs><radialGradient id="a" cx="50%" cy="18.4%" r="59.676%" fx="50%" fy="18.4%"><stop offset="0%" stop-color="#FDE990"></stop><stop offset="100%" stop-color="#FACE57"></stop></radialGradient><radialGradient id="b" cx="50%" cy="44.771%" r="49.968%" fx="50%" fy="44.771%" gradientTransform="rotate(-88.88 .495 .453) scale(1 1.02299)"><stop offset="0%" stop-color="#D27C12" stop-opacity=".186"></stop><stop offset="85.631%" stop-color="#D27C12" stop-opacity="0"></stop><stop offset="100%" stop-color="#D27C12" stop-opacity=".325"></stop></radialGradient><linearGradient id="c" x1="50%" x2="50%" y1="0%" y2="100%"><stop offset="0%"></stop><stop offset="100%" stop-color="#887133"></stop></linearGradient><linearGradient id="d" x1="50%" x2="50%" y1="0%" y2="100%"><stop offset="0%" stop-color="#E95050"></stop><stop offset="99.103%" stop-color="#E85B5B"></stop></linearGradient><filter id="f" width="108.2%" height="126.1%" x="-4.1%" y="-13%" filterUnits="objectBoundingBox"><feGaussianBlur in="SourceAlpha" result="shadowBlurInner1" stdDeviation="10.5"></feGaussianBlur><feOffset dy="1" in="shadowBlurInner1" result="shadowOffsetInner1"></feOffset><feComposite in="shadowOffsetInner1" in2="SourceAlpha" k2="-1" k3="1" operator="arithmetic" result="shadowInnerInner1"></feComposite><feColorMatrix in="shadowInnerInner1" values="0 0 0 0 0   0 0 0 0 0   0 0 0 0 0  0 0 0 0.5 0"></feColorMatrix></filter><filter id="g" width="148%" height="239.5%" x="-24%" y="-69.8%" filterUnits="objectBoundingBox"><feGaussianBlur in="SourceGraphic" stdDeviation="10"></feGaussianBlur></filter><path id="e" d="M165.074118,81.4038462 C215.579865,81.4038462 262.213145,87.3079835 299.827999,97.2837828 C269.661678,138.784226 220.667659,165.771978 165.354995,165.771978 C109.98689,165.771978 60.9501021,138.730097 30.7922131,97.1635028 C68.3250841,87.2587191 114.779523,81.4038462 165.074118,81.4038462 Z"></path></defs><g fill="none" fill-rule="evenodd"><circle cx="259.5" cy="259.5" r="259.5" fill="url(#a)"></circle><circle cx="259.5" cy="259.5" r="259.5" fill="url(#b)"></circle><g transform="translate(95 310)"><path fill="url(#c)" d="M159.857362,0.228021978 C212.600491,0.228021978 269.580872,5.28076883 330.798506,15.3862625 C323.127384,99.7099504 252.038239,165.771978 165.475496,165.771978 C79.3292942,165.771978 8.50813082,100.344203 0.261661067,16.6039967 C51.8391959,5.68654764 105.037265,0.228021978 159.857362,0.228021978 Z" opacity=".88"></path><use fill="url(#d)" xlink:href="#e"></use><use fill="#000" filter="url(#f)" xlink:href="#e"></use></g><ellipse cx="260.5" cy="422.5" fill="#FF8989" filter="url(#g)" opacity=".397" rx="62.5" ry="21.5"></ellipse><path fill="#251C0C" fill-rule="nonzero" d="M81.4404415,231.695202 C83.1883636,225.435935 89.6388608,221.750844 95.9107321,223.388584 L96.1007291,223.439844 L182.296016,247.444958 C193.82001,250.654354 193.888144,266.85635 182.575553,270.259917 L182.229263,270.359111 L96.9402415,293.578577 C90.5990005,295.304944 84.0570115,291.570819 82.3283001,285.238175 C80.6168759,278.968857 84.2645457,272.503052 90.4905701,270.69927 L90.6800238,270.646042 L134.329328,258.76274 L89.707006,246.335616 C83.4392414,244.590063 79.749148,238.148311 81.3891114,231.884942 L81.4404415,231.695202 Z"></path><path fill="#251C0C" fill-rule="nonzero" d="M328.440442,231.695202 C330.188364,225.435935 336.638861,221.750844 342.910732,223.388584 L343.100729,223.439844 L429.296016,247.444958 C440.82001,250.654354 440.888144,266.85635 429.575553,270.259917 L429.229263,270.359111 L343.940242,293.578577 C337.599001,295.304944 331.057012,291.570819 329.3283,285.238175 C327.616876,278.968857 331.264546,272.503052 337.49057,270.69927 L337.680024,270.646042 L381.329328,258.76274 L336.707006,246.335616 C330.439241,244.590063 326.749148,238.148311 328.389111,231.884942 L328.440442,231.695202 Z" transform="matrix(-1 0 0 1 766 0)"></path></g></svg>