<svg xmlns="http://www.w3.org/2000/svg" width="519" height="519" viewBox="0 0 519 519" id="upset-emoji"><defs><radialGradient id="a" cx="50%" cy="18.4%" r="59.676%" fx="50%" fy="18.4%" gradientTransform="scale(-.99808 -1) rotate(-87.684 -.192 .521)"><stop offset="0%" stop-color="#FDE990"></stop><stop offset="100%" stop-color="#FACE57"></stop></radialGradient><radialGradient id="b" cx="50%" cy="44.771%" r="49.968%" fx="50%" fy="44.771%" gradientTransform="matrix(.01955 -.9998 1.02082 .02004 .033 .939)"><stop offset="0%" stop-color="#D27C12" stop-opacity=".186"></stop><stop offset="85.631%" stop-color="#D27C12" stop-opacity="0"></stop><stop offset="100%" stop-color="#D27C12" stop-opacity=".325"></stop></radialGradient><radialGradient id="d" cx="50%" cy="50%" r="92.537%" fx="50%" fy="50%" gradientTransform="matrix(0 .54032 -1 0 1 .23)"><stop offset="0%" stop-color="#71B5F8"></stop><stop offset="100%" stop-color="#0073E4"></stop></radialGradient><linearGradient id="c" x1="54.019%" x2="45.981%" y1=".373%" y2="99.627%"><stop offset="0%" stop-color="#251C0C"></stop><stop offset="100%"></stop></linearGradient></defs><g fill="none" fill-rule="evenodd"><ellipse cx="259.501" cy="259.002" fill="url(#a)" rx="259.501" ry="259.002"></ellipse><ellipse cx="259.501" cy="259.003" fill="url(#b)" rx="259.501" ry="259.002"></ellipse><path fill="url(#c)" d="M154.467082,245.347015 C170.159033,242.785728 186.227545,254.870171 188.682329,276.489932 C191.137114,298.109693 179.048594,321.077808 163.356642,323.639095 C147.664691,326.200382 128.212307,315.025617 125.757523,293.405856 C123.302739,271.786095 138.775131,247.908302 154.467082,245.347015 Z M157.209008,182 C163.786099,182 169.117884,187.349264 169.117884,193.947915 C169.117884,200.546567 163.786099,205.895831 157.209008,205.895831 C143.06815,205.895831 128.544211,211.849721 113.444929,224.22921 C108.352076,228.4047 100.84966,227.647497 96.6878131,222.537949 C92.5259662,217.428401 93.2806952,209.90139 98.3735476,205.7259 C117.474112,190.065869 137.15002,182 157.209008,182 Z" opacity=".88"></path><path fill="url(#c)" d="M395.467082,245.347015 C411.159033,242.785728 427.227545,254.870171 429.682329,276.489932 C432.137114,298.109693 420.048594,321.077808 404.356642,323.639095 C388.664691,326.200382 369.212307,315.025617 366.757523,293.405856 C364.302739,271.786095 379.775131,247.908302 395.467082,245.347015 Z M398.209008,182 C404.786099,182 410.117884,187.349264 410.117884,193.947915 C410.117884,200.546567 404.786099,205.895831 398.209008,205.895831 C384.06815,205.895831 369.544211,211.849721 354.444929,224.22921 C349.352076,228.4047 341.84966,227.647497 337.687813,222.537949 C333.525966,217.428401 334.280695,209.90139 339.373548,205.7259 C358.474112,190.065869 378.15002,182 398.209008,182 Z" opacity=".88" transform="matrix(-1 0 0 1 765 0)"></path><path fill="#251C0C" fill-rule="nonzero" d="M261.862067,370 C290.880425,370 317.30918,385.168257 332.211638,409.523562 C335.704214,415.23153 333.924777,422.700172 328.237155,426.205241 C322.606408,429.675259 315.256176,427.959695 311.720892,422.386601 L311.614936,422.21654 C301.064425,404.973687 282.391037,394.256468 261.862067,394.256468 C242.228371,394.256468 224.272045,404.052984 213.490489,420.065781 L213.165977,420.552917 C209.483929,426.139665 201.986228,427.673053 196.419392,423.977834 C190.852557,420.282615 189.324635,412.758094 193.006683,407.171345 C208.179588,384.149589 233.831214,370 261.862067,370 Z"></path><path fill="url(#d)" d="M109.5,506 C128.001539,506 143,486.029967 143,461.395683 C143,444.972828 131.833333,418.5076 109.5,382 C87.1666667,418.5076 76,444.972828 76,461.395683 C76,486.029967 90.9984609,506 109.5,506 Z"></path></g></svg>